<svg xmlns="http://www.w3.org/2000/svg" viewBox="0 0 48 48"><path fill="#EF6C00" d="M12,32v10H9V32H12z M36,32v10h3V32H36z" data-darkreader-inline-fill="" style="--darkreader-inline-fill:#ff8725;"></path><path fill="#FFA000" d="M43,34H5v-5h38V34z" data-darkreader-inline-fill="" style="--darkreader-inline-fill:#ffaa1a;"></path><path fill="#673AB7" d="M9 6H15V29H9z" data-darkreader-inline-fill="" style="--darkreader-inline-fill:#8158ca;"></path><path fill="#4527A0" d="M9 6H11V29H9z" data-darkreader-inline-fill="" style="--darkreader-inline-fill:#8366da;"></path><path fill="#4CAF50" d="M17 6H23V29H17z" data-darkreader-inline-fill="" style="--darkreader-inline-fill:#61ba65;"></path><path fill="#388E3C" d="M17 6H19V29H17z" data-darkreader-inline-fill="" style="--darkreader-inline-fill:#77c97b;"></path><path fill="#F44336" d="M23 12H29V29H23z" data-darkreader-inline-fill="" style="--darkreader-inline-fill:#f54e42;"></path><path fill="#D32F2F" d="M23 12H25V29H23z" data-darkreader-inline-fill="" style="--darkreader-inline-fill:#d74343;"></path><path fill="#9575CD" d="M15,11H9V9h6V11z M15,24H9v2h6V24z" data-darkreader-inline-fill="" style="--darkreader-inline-fill:#9879ce;"></path><path fill="#7E57C2" d="M11,11H9V9h2V11z M11,24H9v2h2V24z" data-darkreader-inline-fill="" style="--darkreader-inline-fill:#8864c7;"></path><path fill="#81C784" d="M23,11h-6V9h6V11z M23,24h-6v2h6V24z" data-darkreader-inline-fill="" style="--darkreader-inline-fill:#83c886;"></path><path fill="#4CAF50" d="M19,11h-2V9h2V11z M19,24h-2v2h2V24z" data-darkreader-inline-fill="" style="--darkreader-inline-fill:#61ba65;"></path><path fill="#FF8A80" d="M29,17h-6v-2h6V17z M29,24h-6v2h6V24z" data-darkreader-inline-fill="" style="--darkreader-inline-fill:#ff7e73;"></path><path fill="#FF5252" d="M25,17h-2v-2h2V17z M25,24h-2v2h2V24z" data-darkreader-inline-fill="" style="--darkreader-inline-fill:#ff5353;"></path><path fill="#00BCD4" d="M40 27L34 29 29 13 35 11z" data-darkreader-inline-fill="" style="--darkreader-inline-fill:#38e8ff;"></path><path fill="#0097A7" d="M30.974 12.342L29 13 34 29 35.976 28.341z" data-darkreader-inline-fill="" style="--darkreader-inline-fill:#57efff;"></path><path fill="#4DD0E1" d="M33.119,26.181l-0.599-1.917l5.987-2.041l0.599,1.917L33.119,26.181z M29.823,15.633l0.599,1.917l5.975-2.081l-0.599-1.917L29.823,15.633z" data-darkreader-inline-fill="" style="--darkreader-inline-fill:#57d3e3;"></path><path fill="#00BCD4" d="M30.422,17.55l-0.2-0.639l-0.399-1.278l1.966-0.685l0.599,1.917L30.422,17.55z M34.492,23.592l-1.972,0.672l0.3,0.958l0.3,0.958l1.972-0.672L34.492,23.592z" data-darkreader-inline-fill="" style="--darkreader-inline-fill:#38e8ff;"></path></svg>