<svg xmlns="http://www.w3.org/2000/svg" viewBox="0 0 48 48"><path fill="#212121" d="M16 17H33.8V35H16z" data-darkreader-inline-fill="" style="--darkreader-inline-fill:#d3cfca;"></path><path fill="#FFB74D" d="M41,45H9c0-11,12-13,12-13h4h4C29,32,41,34,41,45" data-darkreader-inline-fill="" style="--darkreader-inline-fill:#ffb84f;"></path><path fill="#FF9800" d="M25,37c-3.4,0-4-5-4-5v-7h8v7C29,32,28.4,37,25,37z" data-darkreader-inline-fill="" style="--darkreader-inline-fill:#ffa21a;"></path><path fill="#FFB74D" d="M33,14c0-7.6-16-5-16,0v7c0,8.5,2.6,9.3,8,11c4.9-1.5,8.1-3.5,8-11V14z" data-darkreader-inline-fill="" style="--darkreader-inline-fill:#ffb84f;"></path><path fill="#FFCC80" d="M25.2,45c0.5-2.8,2.9-5,5.9-5s5.4,2.2,5.9,5H25.2z M24.8,45c-0.5-2.8-2.9-5-5.9-5s-5.4,2.2-5.9,5H24.8z" data-darkreader-inline-fill="" style="--darkreader-inline-fill:#ffc773;"></path><path fill="#A35E13" d="M27,16l7,1l-7,1V16z M23,16l-8,1l8,1V16z" data-darkreader-inline-fill="" style="--darkreader-inline-fill:#eca95f;"></path><path fill="#FF3D00" d="M26,26c-0.8,0-1,1-1,1s0-1-1-1s-2,1-2,1s1.2,2,3,2s3-2,3-2S26.8,26,26,26z" data-darkreader-inline-fill="" style="--darkreader-inline-fill:#ff501a;"></path><path fill="#AF6C35" d="M20,21c-3.7,0-4-2-4-2s2.9,0,5,0s2,2,2,2S22.3,21,20,21z M30,21c3.7,0,4-2,4-2s-2.9,0-5,0s-2,2-2,2S28.7,21,30,21z" data-darkreader-inline-fill="" style="--darkreader-inline-fill:#ce905d;"></path><path fill="#784719" d="M19,20c0-0.6,0.4-1,1-1s1,0.4,1,1s-0.4,1-1,1S19,20.6,19,20 M31,20c0-0.6-0.4-1-1-1s-1,0.4-1,1s0.4,1,1,1S31,20.6,31,20" data-darkreader-inline-fill="" style="--darkreader-inline-fill:#e5b181;"></path><path fill="#4E342E" d="M17,26c0.4,3.4-1.3,7-2,8c-1.9,2.6-2.9,3.4-5.2,4.9C7.3,40.6,7,42.9,7,45" data-darkreader-inline-fill="" style="--darkreader-inline-fill:#ccafa8;"></path><path fill="#4E342E" d="M41.3,29.4c-0.3-1.4-1.1-2.7-2.2-3.7C39.4,20.8,39.4,4,25,4c-11,0-13.6,9.9-14.1,16.8c-0.2,0.2-0.4,0.3-0.6,0.5c-1.3,1.2-1.9,3.1-1.8,4.9c0,1,0.3,2.1,0.7,3c-1.3,1-2,2.8-1.9,4.5c0,1.7,0.6,3.3,1.2,4.9L7,45h1c0,0,9,0.3,9-7c0-4.1,0-9.1,0-13c0-3.8,0.8-7.1,1.5-9.4c0.7-1,1.2-2.2,1.4-3.5C20,12.1,20,12,20,12s10.3,4.1,13,9c0,0.1,0,0.1,0,0.1c0,4.2,0,11.5,0,12.2c0.3,0.1,0.6,0.3,0.9,0.4c0,0,0,0,0,0c1.8,0.9,3.7,2.4,5.1,4.4v0v-2.6v-1.7C40.7,33.3,41.7,31.2,41.3,29.4z" data-darkreader-inline-fill="" style="--darkreader-inline-fill:#ccafa8;"></path><path fill="#795548" d="M20 11.5c0 0 0 .1-.1.3-.1.2-.2.4-.4.7-.2.3-.4.7-.6 1-.2.4-.6.8-.9 1.2-.7.8-1.7 1.6-2.8 2.3-.3.1-.6.3-.9.4-.3.1-.6.3-1 .4-.7.3-1.5.6-2.3 1-.8.4-1.6 1-2.2 1.7-.7.8-1.1 1.6-1.3 2.5-.2.9-.3 1.7-.3 2.5 0 .4.1.8.2 1.1.1.4.2.7.3 1C7.9 27.9 8 28 8 28.2l0 0c-.2.2-.4.4-.5.5-.6.8-1 1.6-1.2 2.5C6 32.1 6 32.9 6.1 33.7c0 .2 0 .3.1.5 0 .2.1.4.1.5.1.3.2.6.3.9.4 1.2 1 2 1.4 2.6.1.1.2.3.3.4-.2.2-.4.5-.6.7-.4.6-.7 1.3-.9 1.9-.2.6-.2 1.2-.2 1.6 0 .5.1.9.2 1.2C6.8 44.7 7 45 7 45s.1-.3.4-1c.2-.6.5-1.4 1.1-2.1.3-.4.6-.7 1-1 .4-.3.7-.6 1.3-.9.6-.3 1.2-.7 1.8-1.1.6-.4 1.2-1 1.7-1.6.5-.6.9-1.2 1.3-1.9.3-.6.7-1.4 1-2 .5-1.3.8-2.6.9-3.7.1-.5.1-1.1 0-1.5 0-.4-.1-.8-.1-1.2 0-.3-.1-.6-.2-.7C17 26.1 17 26 17 26s0 .1 0 .3c0 .2 0 .4-.1.7-.1.6-.3 1.5-.6 2.4-.3 1-.8 2.1-1.5 3.1-.2.3-.3.5-.5.7-.1.2-.5.5-.7.7-.5.4-1 .9-1.4 1.3-.5.4-.9.8-1.4 1.2-.5.4-1 .8-1.5 1.2-.2.1-.4.3-.6.5 0-.1 0-.1 0-.2 0-.7-.1-1.6-.2-2.7 0-.3 0-.5 0-.8 0-.1 0-.3 0-.4 0-.1 0-.4 0-.4.1-.5.2-1.1.4-1.6.2-.5.5-1 .8-1.3.1-.1.2-.2.3-.3 0 0 .1-.1.1-.1l.2-.2c.1-.1.4-.2.7-.3.5-.2 1.3-.4 2-.7.4-.1.8-.3 1.2-.5.4-.2.8-.5 1.1-.8 1.3-1.2 1.9-2.7 2.1-3.9.1-.6.1-1.2.1-1.7 0-.5-.1-.9-.2-1.3-.1-.3-.2-.6-.2-.8C17 20.1 17 20 17 20s0 .1-.1.3c0 .2-.1.5-.1.8-.1.3-.2.7-.3 1.1-.1.4-.3.9-.6 1.3-.5.9-1.2 1.8-2.1 2.4-.2.1-.5.3-.7.4-.2.1-.5.2-.8.2-.7.1-1.4.3-2.3.6-.1.1-.3.1-.4.2 0-.2 0-.5 0-.7 0-.3 0-.6.1-.9.1-.6.3-1.1.5-1.7.2-.5.6-1.1.9-1.4.4-.4.9-.8 1.5-1.1.6-.3 1.3-.6 2-1 .4-.2.7-.4 1.1-.6.4-.2.7-.4 1.1-.7 1.3-1 2.3-2.4 2.7-3.6.5-1.2.6-2.3.6-3 0-.4 0-.7-.1-.8C20.1 11.6 20 11.5 20 11.5zM42.6 28.9c-.1-.7-.3-1.3-.6-1.9-.3-.6-.7-1.2-1.1-1.7-.4-.5-.9-.9-1.4-1.3-.5-.4-1-.7-1.5-.9-1-.5-1.9-.9-2.7-1.2-.4-.1-.8-.3-1.1-.4-.3-.1-.6-.2-.8-.3-.2-.1-.3-.2-.4-.3C33 20.7 33 20.7 33 20.7c0 0 0 .1-.1.2 0 .1 0 .4.1.7.1.3.3.6.5.8.2.3.5.6.8.9.6.6 1.4 1.3 2.1 2 .4.3.8.7 1.1 1 .3.3.7.7 1 1 .6.7 1.1 1.4 1.4 2.2.1.4.2.7.2 1.1 0 .4 0 .7 0 1.1-.1.7-.4 1.3-.7 1.6 0 0 0 .1-.1.1-.7-1-1.4-1.8-2.2-2.6-.8-.8-1.6-1.5-2.2-2.2-.6-.6-1.1-1.2-1.4-1.6-.3-.5-.5-.7-.5-.7s0 .1 0 .2c0 .2-.1.4 0 .7 0 .3 0 .7.1 1.1.1.4.2.9.4 1.3.4.9.9 2 1.6 2.9.6 1 1.3 1.9 1.9 2.9.3.5.6.9.8 1.4 0 .1.1.1.1.2 1.2 1.4 2.2 3.1 2.7 5.2.1-.3.2-.7.3-1.1.2-1 .3-2.2.1-3.5-.1-.6-.3-1.3-.5-2-.2-.6-.5-1.2-.9-1.7 0 0 .1 0 .1 0 .5-.1 1.3-.6 1.9-1.4.3-.4.6-.9.7-1.5C42.6 30.3 42.7 29.5 42.6 28.9z" data-darkreader-inline-fill="" style="--darkreader-inline-fill:#ba978a;"></path></svg>