<svg xmlns="http://www.w3.org/2000/svg" viewBox="0 0 48 48"><path fill="#7e57c2" d="M4,9h2l18,4v29.454c0,0.077-0.104,0.113-0.143,0.046C22.114,39.528,4,39,4,39V9z" data-darkreader-inline-fill="" style="--darkreader-inline-fill:#8864c7;"></path><path fill="#efebe9" d="M6,9l2-1c4.69,0.269,16,1.294,16,4v29.721c0,0.024-0.032,0.03-0.039,0.008	c-0.905-3.114-17.326-3.707-17.943-3.728C6.004,38,6,37.989,6,37.976V9z" data-darkreader-inline-fill="" style="--darkreader-inline-fill:#dcd9d4;"></path><path fill="#d7ccc8" d="M24,42c-1-5-16-6-16-6V8L6,9l0.018,29.001C6.018,38.001,23,39,24,42z" data-darkreader-inline-fill="" style="--darkreader-inline-fill:#cac5be;"></path><path fill="#7e57c2" d="M44,9h-2l-18,4v29.454c0,0.077,0.104,0.113,0.143,0.046C25.886,39.528,44,39,44,39V9z" data-darkreader-inline-fill="" style="--darkreader-inline-fill:#8864c7;"></path><path fill="#efebe9" d="M42,9l-2-1c-4.69,0.269-16,1.294-16,4v29.721c0,0.024,0.032,0.03,0.039,0.008	c0.905-3.114,17.326-3.707,17.943-3.728C41.996,38,42,37.989,42,37.976V9z" data-darkreader-inline-fill="" style="--darkreader-inline-fill:#dcd9d4;"></path><path fill="#d7ccc8" d="M24,42c1-5,16-6,16-6V8l2,1l-0.018,29.001C41.982,38.001,25,39,24,42z" data-darkreader-inline-fill="" style="--darkreader-inline-fill:#cac5be;"></path><path fill="#f9a825" d="M22,27c-3-3-11-3-11-3v-5c0,0,8,0,11,3V27z" data-darkreader-inline-fill="" style="--darkreader-inline-fill:#f9ae35;"></path><path fill="#1976d2" d="M26,20c3-3,11-3,11-3v-5c0,0-8,0-11,3C26,15,26,18,26,20z" data-darkreader-inline-fill="" style="--darkreader-inline-fill:#53a7eb;"></path><path fill="#ba68c8" d="M26,36c3-3,11-3,11-3v-7c0,0-8,0-11,3C26,29,26,35,26,36z" data-darkreader-inline-fill="" style="--darkreader-inline-fill:#be70cb;"></path><path fill="#ba68c8" d="M16,12.485C13.363,12.004,11,12,11,12v5c0,0,2.363,0.004,5,0.485V12.485z" data-darkreader-inline-fill="" style="--darkreader-inline-fill:#be70cb;"></path><path fill="#64b5f6" d="M18,12.943v5c1.561,0.444,3.038,1.095,4,2.057c0-2,0-5,0-5C21.038,14.038,19.561,13.387,18,12.943z" data-darkreader-inline-fill="" style="--darkreader-inline-fill:#62b7f6;"></path><path fill="#64b5f6" d="M16.851,26.657C13.893,26.005,11,26,11,26v7c0,0,1.84,0.004,4.083,0.333L16.851,26.657z" data-darkreader-inline-fill="" style="--darkreader-inline-fill:#62b7f6;"></path><path fill="#f9a825" d="M18.779,27.189l-1.725,6.512C18.949,34.138,20.845,34.845,22,36c0-1,0-7,0-7 C21.201,28.201,20.043,27.619,18.779,27.189z" data-darkreader-inline-fill="" style="--darkreader-inline-fill:#f9ae35;"></path><g><path fill="#64b5f6" d="M30,19.943c-1.561,0.444-3.038,1.095-4,2.057v5c0.962-0.962,2.439-1.613,4-2.057V19.943z" data-darkreader-inline-fill="" style="--darkreader-inline-fill:#62b7f6;"></path><path fill="#ff6e40" d="M32,19.485v5C34.637,24.004,37,24,37,24v-5C37,19,34.637,19.004,32,19.485z" data-darkreader-inline-fill="" style="--darkreader-inline-fill:#ff7346;"></path></g></svg>