<svg xmlns="http://www.w3.org/2000/svg" width="48" height="48" viewBox="0 0 48 48"><path fill="#A1887F" d="M6 28l-1 6h11c0-2 0-4 0-6H6zM3 34l-1 6h14c0-2.119 0-3.727 0-6H3zM9 22l-1 6h8c0-1.714 0-4.285 0-6H9zM12 16l-1 6h5c0-2 0-4 0-6H12zM16 16H32V40H16z" data-darkreader-inline-fill="" style="--darkreader-inline-fill:#a29a8e;"></path><path fill="#BCAAA4" d="M45 34H32c0 2.273 0 3.881 0 6h14L45 34zM42 28H32c0 2 0 4 0 6h11L42 28zM39 22h-7c0 1.715 0 4.286 0 6h8L39 22zM36 16h-4c0 2 0 4 0 6h5L36 16zM18 16H30V40H18z" data-darkreader-inline-fill="" style="--darkreader-inline-fill:#b6b0a6;"></path><g><path fill="#BCAAA4" d="M2.5 37L3 34 16 34 16 37zM5.5 31L6 28 16 28 16 31zM8.5 25L9 22 16 22 16 25zM11.5 19L12 16 16 16 16 19zM16 8H32V16H16z" data-darkreader-inline-fill="" style="--darkreader-inline-fill:#b6b0a6;"></path></g><g><path fill="#8D6E63" d="M16 14H32V16H16zM18 18H30V20H18zM18 22H30V24H18zM18 26H30V28H18zM18 30H30V32H18zM18 34H30V36H18zM18 38H30V40H18z" data-darkreader-inline-fill="" style="--darkreader-inline-fill:#9c9487;"></path></g><g><path fill="#5D4037" d="M23 16h-4v-3c0-1.104.896-2 2-2l0 0c1.104 0 2 .896 2 2V16zM29 16h-4v-3c0-1.104.896-2 2-2l0 0c1.104 0 2 .896 2 2V16z" data-darkreader-inline-fill="" style="--darkreader-inline-fill:#c6a79e;"></path></g><g><path fill="#D7CCC8" d="M45.5 37L45 34 32 34 32 37zM42.5 31L42 28 32 28 32 31zM39.5 25L39 22 32 22 32 25zM36.5 19L36 16 32 16 32 19z" data-darkreader-inline-fill="" style="--darkreader-inline-fill:#cac5be;"></path></g><path fill="#6D4C41" d="M16 40L16 16 13 40z" data-darkreader-inline-fill="" style="--darkreader-inline-fill:#be9e93;"></path></svg>