<svg xmlns="http://www.w3.org/2000/svg" width="48" height="48" viewBox="0 0 48 48"><path fill="#FF9800" d="M27.515,31.216c1.313-1.313,3.883-2.577,4.743-3.94c2.204-3.495-1.49-6.699-3.162-8.371c-1.673-1.673-4.877-5.367-8.372-3.163c-1.363,0.86-2.628,3.431-3.94,4.743c-2.105,2.104-6.43,1.485-9.492,4.548C5.865,26.458,5,28.094,5,29.817c0,2.863,1.856,5.428,4.863,8.318c2.891,3.006,5.456,4.863,8.318,4.864c1.724,0,3.359-0.866,4.785-2.292C26.029,37.646,25.41,33.322,27.515,31.216z" data-darkreader-inline-fill="" style="--darkreader-inline-fill:#ffa21a;"></path><path fill="#5D4037" d="M42.14 10.847c.197.197.516.197.713 0 .196-.196.196-.516 0-.712l-1.068-1.068-.713.712L42.14 10.847zM35.727 7.284l1.069 1.069.712-.714-1.068-1.068c-.197-.196-.516-.196-.713 0C35.53 6.769 35.53 7.087 35.727 7.284zM37.152 5.859l1.069 1.068.712-.712-1.069-1.069c-.196-.196-.515-.196-.712 0C36.955 5.344 36.955 5.662 37.152 5.859zM41.428 11.56l-1.069-1.068-.712.712 1.068 1.069c.197.196.516.196.713 0C41.624 12.075 41.624 11.757 41.428 11.56zM36.083 9.066l-1.068-1.07c-.197-.196-.516-.196-.713 0-.196.198-.196.516 0 .714l1.069 1.068L36.083 9.066zM40.003 12.984l-1.069-1.068-.712.712 1.068 1.069c.197.196.516.196.713 0C40.199 13.5 40.199 13.182 40.003 12.984z" data-darkreader-inline-fill="" style="--darkreader-inline-fill:#c6a79e;"></path><path fill="#5D4037" d="M13.67 29.291H21.731V31.307000000000002H13.67z" transform="rotate(45.009 17.7 30.296)" data-darkreader-inline-fill="" style="--darkreader-inline-fill:#c6a79e;"></path><path fill="#5D4037" d="M19.126 33.147c-.394.395-1.031.395-1.425 0l-2.85-2.85c-.395-.394-.395-1.031 0-1.425l0 0c.394-.394 1.031-.394 1.425 0l2.85 2.85C19.521 32.117 19.521 32.754 19.126 33.147L19.126 33.147zM37.501 13.349L34.658 10.491 22.684 22.466 25.533 25.315z" data-darkreader-inline-fill="" style="--darkreader-inline-fill:#c6a79e;"></path><path fill="#3E2723" d="M22.683 22.294A3.022 3.022 0 1 0 22.683 28.337999999999997A3.022 3.022 0 1 0 22.683 22.294Z" data-darkreader-inline-fill="" style="--darkreader-inline-fill:#c9c5be;"></path><path fill="#C16629" d="M42.496,8.354l-2.85-2.851c-0.395-0.394-1.031-0.394-1.425,0l-4.275,4.275c-0.394,0.394-0.394,1.031,0,1.425l2.85,2.85c0.395,0.396,1.031,0.396,1.426,0l4.274-4.274C42.89,9.384,42.89,8.747,42.496,8.354z M36.439,10.847c-0.197,0.197-0.516,0.197-0.713,0c-0.196-0.196-0.196-0.516,0-0.712l2.852-2.851c0.196-0.197,0.516-0.197,0.712,0c0.197,0.197,0.197,0.516,0,0.712L36.439,10.847z M37.864,12.272c-0.196,0.196-0.515,0.196-0.712,0c-0.197-0.197-0.197-0.516,0-0.713l2.851-2.85c0.196-0.198,0.516-0.198,0.712,0c0.197,0.196,0.197,0.516,0,0.712L37.864,12.272z" data-darkreader-inline-fill="" style="--darkreader-inline-fill:#d9864e;"></path></svg>