<svg xmlns="http://www.w3.org/2000/svg" viewBox="0 0 48 48"><path fill="#009688" d="M24 10A8 8 0 1 0 24 26A8 8 0 1 0 24 10Z" data-darkreader-inline-fill="" style="--darkreader-inline-fill:#63fff0;"></path><path fill="#E89419" d="M16 18H32V24H16z" data-darkreader-inline-fill="" style="--darkreader-inline-fill:#ea9f30;"></path><path fill="#2196F3" d="M31,5v4h-2.2c-2.4,0-1.2-1-4.8-1V4c3.6,0,2.4,1,4.8,1H31z" data-darkreader-inline-fill="" style="--darkreader-inline-fill:#33a2f4;"></path><path fill="#FFB74D" d="M4 24H44V41H4z" data-darkreader-inline-fill="" style="--darkreader-inline-fill:#ffb84f;"></path><path fill="#B07424" d="M31 34H35V39H31zM25 34H29V39H25zM19 34H23V39H19zM37 34H41V39H37zM13 34H17V39H13zM7 34H11V39H7zM31 27H35V32H31zM25 27H29V32H25zM19 27H23V32H19zM29 24h-4v-3c0-1.1.9-2 2-2h0c1.1 0 2 .9 2 2V24zM23 24h-4v-3c0-1.1.9-2 2-2h0c1.1 0 2 .9 2 2V24zM37 27H41V32H37zM13 27H17V32H13zM7 27H11V32H7z" data-darkreader-inline-fill="" style="--darkreader-inline-fill:#dda559;"></path></svg>