<svg xmlns="http://www.w3.org/2000/svg" viewBox="0 0 48 48"><path fill="#546e7a" d="M34.044,7c0,0-0.583-4-5-4c-2.086,0-3.593,0-5,0C24.03,3,24.014,3,24,3c-1.407,0-2.914,0-5,0c-4.417,0-5,4-5,4s-0.97,6.553-1,17c-0.009,3.053,0.054,6.439,0.255,10.091l0.38,7.511c0.076,1.498,1.249,2.715,2.76,2.865l3.226,0.318c1.456,0.144,2.917,0.214,4.378,0.213v0.001c0.007,0,0.015,0,0.022,0s0.015,0,0.022,0v-0.001c1.461,0,2.922-0.07,4.378-0.213l3.226-0.318c1.511-0.149,2.685-1.367,2.76-2.865l0.38-7.511C34.99,30.439,35.009,27.053,35,24C34.97,13.553,34.044,7,34.044,7z" data-darkreader-inline-fill="" style="--darkreader-inline-fill:#a79f94;"></path><path fill="#80cbc4" d="M29.074,22H18.926C18.415,22,18,21.585,18,21.074v-7.148C18,13.415,18.415,13,18.926,13h10.148C29.585,13,30,13.415,30,13.926v7.148C30,21.585,29.585,22,29.074,22z" data-darkreader-inline-fill="" style="--darkreader-inline-fill:#82ccc5;"></path><path fill="#b3e5fc" d="M24 30A2 1.5 0 1 0 24 33 2 1.5 0 1 0 24 30zM24 35A2 1.5 0 1 0 24 38 2 1.5 0 1 0 24 35zM24 40A2 1.5 0 1 0 24 43 2 1.5 0 1 0 24 40zM30 29A2 1.5 0 1 0 30 32 2 1.5 0 1 0 30 29zM30 34A2 1.5 0 1 0 30 37 2 1.5 0 1 0 30 34zM30 39A2 1.5 0 1 0 30 42 2 1.5 0 1 0 30 39zM18 29A2 1.5 0 1 0 18 32 2 1.5 0 1 0 18 29zM18 34A2 1.5 0 1 0 18 37 2 1.5 0 1 0 18 34zM18 39A2 1.5 0 1 0 18 42 2 1.5 0 1 0 18 39zM29 4H19c-2.209 0-4 1.791-4 4v11c0 4.971 4.029 9 9 9s9-4.029 9-9V8C33 5.791 31.209 4 29 4zM32 19c0 2.761-2.239 5-5 5h-6c-2.761 0-5-2.239-5-5V8c0-1.657 1.343-3 3-3h10c1.657 0 3 1.343 3 3V19z" data-darkreader-inline-fill="" style="--darkreader-inline-fill:#99dcfb;"></path><g><path fill="#37474f" d="M24 6A1 1 0 1 0 24 8 1 1 0 1 0 24 6zM24 9A1 1 0 1 0 24 11 1 1 0 1 0 24 9z" data-darkreader-inline-fill="" style="--darkreader-inline-fill:#beb8b0;"></path></g></svg>