<svg xmlns="http://www.w3.org/2000/svg" version="1.0" viewBox="0 0 48 48"><path fill="#616161" d="M40,16H8v24c0,2.2,1.8,4,4,4h24c2.2,0,4-1.8,4-4V16z" data-darkreader-inline-fill="" style="--darkreader-inline-fill:#aba398;"></path><path fill="#424242" d="M36,4H12C9.8,4,8,5.8,8,8v9h32V8C40,5.8,38.2,4,36,4z" data-darkreader-inline-fill="" style="--darkreader-inline-fill:#beb9b0;"></path><path fill="#9CCC65" d="M36,14H12c-0.6,0-1-0.4-1-1V8c0-0.6,0.4-1,1-1h24c0.6,0,1,0.4,1,1v5C37,13.6,36.6,14,36,14z" data-darkreader-inline-fill="" style="--darkreader-inline-fill:#a1cf6d;"></path><path fill="#33691E" d="M33 10H35V12H33zM29 10H31V12H29z" data-darkreader-inline-fill="" style="--darkreader-inline-fill:#a4df8e;"></path><path fill="#FF5252" d="M36,23h-3c-0.6,0-1-0.4-1-1v-2c0-0.6,0.4-1,1-1h3c0.6,0,1,0.4,1,1v2C37,22.6,36.6,23,36,23z" data-darkreader-inline-fill="" style="--darkreader-inline-fill:#ff5353;"></path><path fill="#E0E0E0" d="M15 23h-3c-.6 0-1-.4-1-1v-2c0-.6.4-1 1-1h3c.6 0 1 .4 1 1v2C16 22.6 15.6 23 15 23zM22 23h-3c-.6 0-1-.4-1-1v-2c0-.6.4-1 1-1h3c.6 0 1 .4 1 1v2C23 22.6 22.6 23 22 23zM29 23h-3c-.6 0-1-.4-1-1v-2c0-.6.4-1 1-1h3c.6 0 1 .4 1 1v2C30 22.6 29.6 23 29 23zM15 29h-3c-.6 0-1-.4-1-1v-2c0-.6.4-1 1-1h3c.6 0 1 .4 1 1v2C16 28.6 15.6 29 15 29zM22 29h-3c-.6 0-1-.4-1-1v-2c0-.6.4-1 1-1h3c.6 0 1 .4 1 1v2C23 28.6 22.6 29 22 29zM29 29h-3c-.6 0-1-.4-1-1v-2c0-.6.4-1 1-1h3c.6 0 1 .4 1 1v2C30 28.6 29.6 29 29 29zM15 35h-3c-.6 0-1-.4-1-1v-2c0-.6.4-1 1-1h3c.6 0 1 .4 1 1v2C16 34.6 15.6 35 15 35zM22 35h-3c-.6 0-1-.4-1-1v-2c0-.6.4-1 1-1h3c.6 0 1 .4 1 1v2C23 34.6 22.6 35 22 35zM29 35h-3c-.6 0-1-.4-1-1v-2c0-.6.4-1 1-1h3c.6 0 1 .4 1 1v2C30 34.6 29.6 35 29 35zM15 41h-3c-.6 0-1-.4-1-1v-2c0-.6.4-1 1-1h3c.6 0 1 .4 1 1v2C16 40.6 15.6 41 15 41zM22 41h-3c-.6 0-1-.4-1-1v-2c0-.6.4-1 1-1h3c.6 0 1 .4 1 1v2C23 40.6 22.6 41 22 41zM29 41h-3c-.6 0-1-.4-1-1v-2c0-.6.4-1 1-1h3c.6 0 1 .4 1 1v2C30 40.6 29.6 41 29 41z" data-darkreader-inline-fill="" style="--darkreader-inline-fill:#d4d1cb;"></path><g><path fill="#BDBDBD" d="M36 29h-3c-.6 0-1-.4-1-1v-2c0-.6.4-1 1-1h3c.6 0 1 .4 1 1v2C37 28.6 36.6 29 36 29zM36 35h-3c-.6 0-1-.4-1-1v-2c0-.6.4-1 1-1h3c.6 0 1 .4 1 1v2C37 34.6 36.6 35 36 35zM36 41h-3c-.6 0-1-.4-1-1v-2c0-.6.4-1 1-1h3c.6 0 1 .4 1 1v2C37 40.6 36.6 41 36 41z" data-darkreader-inline-fill="" style="--darkreader-inline-fill:#beb9b0;"></path></g></svg>