<?xml version="1.0" encoding="UTF-8"?>
<svg xmlns="http://www.w3.org/2000/svg" xmlns:xlink="http://www.w3.org/1999/xlink" viewBox="0 0 48 48" width="48px" height="48px">
<g id="surface36847269">
<path style=" stroke:none;fill-rule:nonzero;fill:rgb(7.058824%,8.627451%,16.078432%);fill-opacity:1;" d="M 44 24 C 44 35.046875 35.046875 44 24 44 C 12.953125 44 4 35.046875 4 24 C 4 12.953125 12.953125 4 24 4 C 35.046875 4 44 12.953125 44 24 Z M 44 24 "/>
<path style=" stroke:none;fill-rule:nonzero;fill:rgb(72.156864%,75.686276%,92.54902%);fill-opacity:1;" d="M 21.292969 32.707031 L 13.292969 24.707031 C 12.902344 24.316406 12.902344 23.683594 13.292969 23.292969 L 14.707031 21.878906 C 15.097656 21.488281 15.730469 21.488281 16.121094 21.878906 L 22 27.757812 L 32.878906 16.878906 C 33.269531 16.488281 33.902344 16.488281 34.292969 16.878906 L 35.707031 18.292969 C 36.097656 18.683594 36.097656 19.316406 35.707031 19.707031 L 22.707031 32.707031 C 22.316406 33.097656 21.683594 33.097656 21.292969 32.707031 Z M 21.292969 32.707031 "/>
</g>
</svg>
